<svg xmlns="http://www.w3.org/2000/svg" viewBox="0 0 30 30" id="global-player-icon-9ba95542--sprite"><g fill-rule="evenodd"><path d="M21.24 10.73c.98.56.98 1.96 0 2.5L2.3 23.74c-.95.54-2.1-.15-2.1-1.26V1.53C.2.43 1.35-.24 2.3.3l18.94 10.43z" fill="url(#global-player-icon-9ba95542--sprite_a)" transform="translate(4 3)"></path><path fill="#fff" d="M10.4 15.02c.42.42.98.7 1.64.7.63 0 1.2-.28 1.6-.7.42-.42.68-1 .68-1.64 0-.65-.26-1.22-.67-1.67-.4-.4-.92-.63-1.5-.68h-.18c-.6.02-1.15.27-1.57.7a2.366 2.366 0 000 3.3zm6.12-1.66c0 1.28-.52 2.46-1.37 3.3.83.74 1.37 1.83 1.37 3.05 0 2.23-1.76 4-3.92 4-2.15 0-3.92-1.8-3.92-4 0-.57.13-1.12.35-1.63l2.03.93c-.1.22-.16.44-.16.7 0 .5.2.92.5 1.23a1.691 1.691 0 002.4 0c.3-.3.5-.73.5-1.22 0-.48-.2-.9-.5-1.2-.3-.32-.72-.52-1.2-.52h-.58c-2.5 0-4.5-2.07-4.5-4.62 0-2.56 2-4.6 4.5-4.63h4.48s.18 1.45-.76 2.03c.5.75.78 1.64.78 2.6z"></path></g></svg>
