<svg id="glbpod" width="24" height="24" version="1.1" viewBox="0 0 24 24" xmlns="http://www.w3.org/2000/svg">
  <path
     d="m 11.948225,9.3872281 a 3.3932374,3.3932374 0 0 1 3.389274,3.3879519 3.3932374,3.3932374 0 0 1 -2.735204,3.325849 v 5.917024 a 0.64878487,0.64878487 0 0 1 -0.539112,0.643499 l -0.07796,0.0066 -0.07532,-0.0066 A 0.66067706,0.66067706 0 0 1 11.368151,22.019374 V 16.116885 A 3.3932374,3.3932374 0 0 1 8.5602727,12.77518 3.3932374,3.3932374 0 0 1 11.948225,9.3872281 Z m 7.448474,-4.1186608 c 4.123946,4.1226249 4.123946,10.8324617 0,14.9550867 a 0.42283332,0.42283332 0 1 1 -0.597252,-0.597252 c 3.792286,-3.793608 3.792286,-9.9669749 0,-13.7605826 -3.793608,-3.7922863 -9.9669753,-3.7922863 -13.760583,0 -3.7922863,3.7936077 -3.7922863,9.9669746 0,13.7605826 a 0.42283332,0.42283332 0 1 1 -0.597252,0.597252 c -4.12394625,-4.122625 -4.12394625,-10.8324618 0,-14.9550867 4.1226248,-4.1239461 10.832462,-4.1239461 14.955087,0 z m -2.367867,2.4180781 a 7.1908091,7.1908091 0 0 1 0,10.1691416 0.42325532,0.42325532 0 1 1 -0.598573,-0.598573 6.3451425,6.3451425 0 1 0 -8.9719956,0 A 0.42372275,0.42372275 0 0 1 6.8583686,17.855787 7.1916034,7.1916034 0 1 1 17.028832,7.685324 Z m -5.084571,2.5462496 a 2.5383217,2.5383217 0 1 0 0,5.076643 2.5383217,2.5383217 0 0 0 0,-5.076643 z"
     id="path1"     
     fill="#000" />
</svg>
