<svg id="glbplay" width="24" height="24" version="1.1" viewBox="0 0 24 24" xmlns="http://www.w3.org/2000/svg">
  <path
     d="M 20.899209,2.3235496 V 17.775119 c 0,1.612877 -1.402221,2.613171 -3.292958,2.613171 -1.892028,0 -3.294249,-1.000294 -3.294249,-2.613171 0,-1.61417 1.402221,-2.613171 3.294249,-2.613171 h 1.796394 c 0.361863,0 0.655231,-0.29983 0.655231,-0.669448 V 6.2303824 L 13.398296,7.4529639 8.688902,8.3175591 V 19.961808 c 0,1.615462 -1.4022209,2.614463 -3.2929574,2.614463 -1.8920288,0 -3.2942497,-1.000294 -3.2942497,-2.613171 0,-1.612877 1.4022209,-2.613171 3.2942497,-2.613171 h 1.7963936 c 0.3618634,0 0.6552313,-0.29983 0.6552313,-0.669447 V 4.5115311 c 0,-0.2067792 0.1460377,-0.3825414 0.3476474,-0.4187277 L 20.405524,1.9048219 c 0.258473,-0.046525 0.493685,0.1550843 0.493685,0.4187277 z M 20.059169,2.8301584 8.688902,4.868225 V 7.4529639 L 20.057876,5.3670796 V 2.8301584 Z"
     id="path1"
     fill="#000" />
</svg>
