 <svg id="svgglob" width="24" height="24" version="1.1" viewBox="0 0 24 24" xmlns="http://www.w3.org/2000/svg">
  <path
     id="path26"
     d="M 3.0725561,0.64330386 C 2.3784865,0.65498396 1.7585409,1.2134592 1.7585409,2.0041145 V 22.083091 c 0,1.063791 1.1036229,1.724841 2.0140745,1.207322 l 5.3590105,-2.974317 c -1.740809,-0.329567 -3.0791378,-1.891277 -3.0791378,-3.76235 0,-0.546273 0.1242138,-1.074199 0.3350552,-1.562968 l 1.9466896,0.890985 c -0.09584,0.210842 -0.153489,0.422806 -0.153489,0.671983 0,0.479185 0.191674,0.880277 0.479185,1.177371 a 1.6206039,1.6206039 0 0 0 2.3004601,0 c 0.287512,-0.287511 0.479186,-0.698412 0.479186,-1.168013 0,-0.460018 -0.191674,-0.863656 -0.479186,-1.151168 -0.287511,-0.306677 -0.691148,-0.497902 -1.1511651,-0.497902 h -0.55593 c -2.3959247,0 -4.3126649,-1.983003 -4.3126649,-4.426847 0,-2.4534275 1.9167402,-4.4093257 4.3126649,-4.4380769 H 13.255237 L 3.7726154,0.82674186 C 3.5450027,0.69736196 3.3039126,0.63941046 3.0725561,0.64330386 Z M 13.5566,6.2157018 c 0.01739,0.3557106 -0.0023,1.3245738 -0.737496,1.7782259 0.47721,0.7158144 0.744652,1.5663381 0.746855,2.4820293 -0.0026,1.223056 -0.49963,2.351055 -1.312144,3.15401 0.795447,0.709194 1.312144,1.754567 1.312144,2.923779 0,0.519827 -0.103691,1.010418 -0.284517,1.460016 l 8.642178,-4.795594 c 0.939202,-0.51752 0.939202,-1.859238 0,-2.395925 z M 9.2064989,8.2335202 c -0.575022,0.019167 -1.102425,0.2598831 -1.50494,0.6719823 a 2.2675036,2.2675036 0 0 0 0,3.1614985 v -0.0094 c 0.402515,0.402515 0.93793,0.671982 1.570453,0.671982 0.603774,0 1.1515411,-0.269467 1.5348891,-0.671982 0.402516,-0.402516 0.651392,-0.957098 0.651392,-1.570455 0,-0.6229402 -0.249101,-1.1691352 -0.642032,-1.6004022 C 10.432912,8.503361 9.9345619,8.2813642 9.3787069,8.2334457 Z"     
     fill="#000" />
</svg>
