<svg id="glbcatch" width="24" height="24" version="1.1" viewBox="0 0 24 24" xmlns="http://www.w3.org/2000/svg">
  <path
     d="M 6.1635576,1.6949152 V 3.3603381 H 17.821518 V 1.6949152 h 0.832712 v 1.6654229 h 2.033637 c 0.716912,0 1.297208,0.5828981 1.297208,1.3011117 V 21.211591 c 0,0.706504 -0.5868,1.301112 -1.31152,1.301112 H 3.3115208 A 1.2998106,1.2998106 0 0 1 2.0000002,21.211591 V 4.6614498 c 0,-0.7065036 0.5802959,-1.3011117 1.2972084,-1.3011117 H 5.3308461 V 1.6949152 Z M 5.3308461,4.1930496 H 2.8327117 V 21.679991 H 21.152364 V 4.1930496 H 18.65423 v 1.665423 H 17.821518 V 4.1930496 H 6.1635576 v 1.665423 H 5.3308461 Z M 17.176167,8.0053068 A 6.8997951,6.8997951 0 1 1 7.4178292,17.762344 0.4581724,0.4581724 0 1 1 8.0657829,17.114391 5.9851137,5.9851137 0 1 0 6.3248955,13.260498 L 7.1836292,12.4447 a 0.45799131,0.45799131 0 0 1 0.6986969,0.581598 l -0.067658,0.08066 -1.643304,1.565238 0.015613,-0.01562 a 0.45929242,0.45929242 0 0 1 -0.2276946,0.130112 l -0.052044,0.0091 a 0.4566902,0.4566902 0 0 1 -0.2940513,-0.06636 l -0.04684,-0.03383 -0.0039,-0.0039 a 0.32657903,0.32657903 0 0 1 -0.022123,-0.01954 L 3.8970211,13.105666 a 0.45830614,0.45830614 0 1 1 0.6323403,-0.663569 l 0.8795514,0.839219 v -0.01821 a 6.863364,6.863364 0 0 1 2.0102175,-5.2590942 6.8997951,6.8997951 0 0 1 9.7583377,0 z m -5.363183,2.4877252 2.417466,1.39219 c 0.67918,0.390333 0.671373,1.025277 -0.01301,1.414309 L 11.826,14.65659 c -0.686987,0.390334 -1.245163,0.06506 -1.245163,-0.731224 v -2.705012 c 0,-0.793678 0.559478,-1.113752 1.232152,-0.727322 z"
     id="path1"     
	 fill="#000" />
</svg>
