<svg id="svgglob" width="24" height="24" version="1.1" viewBox="0 0 24 24" xmlns="http://www.w3.org/2000/svg">
 <path id="path26" d="m4.1333 2.0002c-0.59864 0.010234-1.1333 0.49955-1.1333 1.1923v17.592c0 0.93205 0.95188 1.5112 1.7371 1.0578l4.6222-2.606c-1.5015-0.28875-2.6558-1.6571-2.6558-3.2964 0-0.47862 0.10713-0.94117 0.28899-1.3694l1.679 0.78064c-0.082662 0.18473-0.13238 0.37044-0.13238 0.58876 0 0.41984 0.16532 0.77126 0.4133 1.0316a1.3978 1.4199 0 0 0 1.9842 0c0.24798-0.2519 0.4133-0.61192 0.4133-1.0234 0-0.40305-0.16532-0.7567-0.4133-1.0086-0.24798-0.2687-0.59612-0.43624-0.99288-0.43624h-0.47949c-2.0665 0-3.7197-1.7374-3.7197-3.8786 0-2.1496 1.6532-3.8633 3.7197-3.8884h3.4517l-8.1788-4.5756c-0.19632-0.11336-0.40426-0.16413-0.6038-0.16072zm9.0425 4.8823c0.015 0.31166-2e-3 1.1605-0.63609 1.558 0.4116 0.62717 0.64226 1.3724 0.64416 2.1746-0.0022 1.0716-0.43093 2.0599-1.1317 2.7634 0.68608 0.62136 1.1317 1.5373 1.1317 2.5617 0 0.45545-0.08943 0.88528-0.2454 1.2792l7.4539-4.2017c0.81006-0.45343 0.81006-1.629 0-2.0992zm-3.752 1.7679c-0.49596 0.016793-0.95085 0.2277-1.298 0.58876a1.9557 1.9867 0 0 0 0 2.77v-0.0082c0.34717 0.35267 0.80897 0.58876 1.3545 0.58876 0.52076 0 0.99321-0.2361 1.3238-0.58876 0.34717-0.35267 0.56183-0.83857 0.56183-1.376 0-0.54579-0.21485-1.0243-0.55376-1.4022-0.33064-0.33594-0.76047-0.53044-1.2399-0.57243z" stroke-width=".8693" fill="#000"/>
</svg>
