<svg id="glbradio" width="24" height="24" version="1.1" viewBox="0 0 24 24" xmlns="http://www.w3.org/2000/svg">
  <path
     d="m 17.511211,8.9356153 v 2.4173827 c 0,3.22236 -2.416157,5.638517 -5.638516,5.638517 -3.2211341,0 -5.6372908,-2.417384 -5.6372908,-5.638517 V 8.9356153 H 5.4292005 v 2.4173827 c 0,3.536498 2.7474734,6.2128 6.0140095,6.443493 v 2.417384 H 7.8453573 c 0,0.804977 0.6577248,0.804977 1.0209459,0.804977 h 6.2287508 c 0.656498,0 0.644227,-0.804977 0.644227,-0.804977 h -3.435875 v -2.417384 c 3.267762,-0.230693 6.012782,-2.906995 6.012782,-6.443493 V 8.9356153 Z M 8.6515609,5.7206173 v 5.6250187 a 3.2235876,3.2235876 0 0 0 3.2211341,3.229722 3.2272688,3.2272688 0 0 0 3.222359,-3.229722 V 5.7218445 A 3.2235876,3.2235876 0 0 0 11.872695,2.4921214 3.2272688,3.2272688 0 0 0 8.6515609,5.7218445 Z m -0.8062036,0 A 4.0334725,4.0334725 0 0 1 11.872695,1.688372 4.0297913,4.0297913 0 0 1 15.901258,5.7230715 V 11.346863 A 4.0334725,4.0334725 0 0 1 11.872695,15.381562 4.0297913,4.0297913 0 0 1 7.8453573,11.346863 V 5.7218445 Z"
     id="radio-inactive-0a821b71--sprite_a"     
     fill="#000" />
</svg>
